{"title":"Dracula Untold (2014) [DVD Ready.VOB]-PYRORECORDINGS","uid":11675669,"size":3419220014,"categoryP":"video","categoryS":"movies","magnet":"?xt=urn:btih:7b57325c72a7780432e9765644b4eee1b78b6402&amp;dn=Dracula+Untold+%282014%29+%5BDVD+Ready.VOB%5D-PYRORECORDINGS&amp;tr=udp%3A%2F%2Ftracker.openbittorrent.com%3A80&amp;tr=udp%3A%2F%2Fopen.demonii.com%3A1337&amp;tr=udp%3A%2F%2Ftracker.coppersurfer.tk%3A6969&amp;tr=udp%3A%2F%2Fexodus.desync.com%3A6969","seeders":2,"leechers":0,"uploader":"Pyro4vida","files":9,"time":1422855154,"description":"DRACULA UNTOLD 2014\n\nIn 15th-century Transylvania, Vlad III (Luke Evans), prince of Wallachia, is known as a just ruler. With his beloved wife, Mirena (Sarah Gadon), Vlad has brokered a prolonged period of peace and ensured that his people are protected, especially from the Ottoman Empire. However, when Sultan Mehmed II (Dominic Cooper) demands 1,000 of the country's boys, including Vlad's son, for his army, Vlad makes a deal with a monster that will enable him to defeat the Turks -- but cost him his humanity.\n\n\nPyroRECORDINGS-DRACULA_UNTOLD_DVD-VIDEO_TS-VTS_.VOB\n\nFormat                                   : MPEG-PS\nFile size                                : 3.18gb\nDuration                                 : 1h 32m\nOverall bit rate mode                    : Variable\nOverall bit rate                         : 5 008 Kbps\nWriting library                          : encoded by TMPGEnc Authoring Works 4 Version. 4.0.7.32\n\nVideo\nID                                       : 224 (0xE0)\nFormat                                   : MPEG Video\nFormat version                           : Version 2\nFormat profile                           : Main@Main\nFormat settings, BVOP                    : Yes\nFormat settings, Matrix                  : Custom\nDuration                                 : 1h 32m\nBit rate mode                            : Variable\nBit rate                                 : 4 684 Kbps\nMaximum bit rate                         : 8 000 Kbps\nWidth                                    : 720 pixels\nHeight                                   : 480 pixels\nDisplay aspect ratio                     : 16:9\nFrame rate                               : 23.976 fps\nStandard                                 : NTSC\nColor space                              : YUV\nChroma subsampling                       : 4:2:0\nBit depth                                : 8 bits\nScan type                                : Progressive\nScan order                               : 2:3 Pulldown\nCompression mode                         : Lossy\nBits/(Pixel*Frame)                       : 0.565\nStream size                              : 958 MiB (94%)\nWriting library                          : TMPGEnc Authoring Works 4 Version. 4.0.7.32\n\nAudio\nID                                       : 189 (0xBD)-128 (0x80)\nFormat                                   : AC-3\nFormat/Info                              : Audio Coding 3\nMode extension                           : CM (complete main)\nMuxing mode                              : DVD-Video\nDuration                                 : 1h 32m\nBit rate mode                            : Constant\nBit rate                                 : 224 Kbps\nChannel(s)                               : 2 channels\nChannel positions                        : Front: L R\nSampling rate                            : 48.0 KHz\nBit depth                                : 16 bits\nCompression mode                         : Lossy\nStream size                              : 45.8 MiB (4%)","torrent":{"xt":"urn:btih:7b57325c72a7780432e9765644b4eee1b78b6402","amp;dn":"Dracula+Untold+%282014%29+%5BDVD+Ready.VOB%5D-PYRORECORDINGS","amp;tr":["udp%3A%2F%2Ftracker.openbittorrent.com%3A80","udp%3A%2F%2Fopen.demonii.com%3A1337","udp%3A%2F%2Ftracker.coppersurfer.tk%3A6969","udp%3A%2F%2Fexodus.desync.com%3A6969"],"infoHash":"7b57325c72a7780432e9765644b4eee1b78b6402","infoHashBuffer":{"type":"Buffer","data":[123,87,50,92,114,167,120,4,50,233,118,86,68,180,238,225,183,139,100,2]},"announce":[],"urlList":[]}}